#Comment line ignore any data following # character 
#Hierarchical Translation and Rotation (.htr) file 
[Header]	
#Header keywords are followed by a single value 
FileType HTR		#Single word string
DataType HTRS		#Translation followed by rotation and scale data
FileVersion 1		#integer
NumSegments 23		#integer
NumFrames 4		#integer
DataFrameRate 30		#integer, data frame rate in this file
EulerRotationOrder ZYX
CalibrationUnits mm
RotationUnits Degrees
GlobalAxisofGravity Y
BoneLengthAxis Y
ScaleFactor 1.00
[SegmentNames&Hierarchy]
#CHILD	PARENT
MASTER GLOBAL
weapon MASTER
arm_lock_bottom_part1 weapon
arm_lock_bottom_part2 weapon
arm_lock_bottom_part3 weapon
arm_lock_bottom_part4 weapon
arm_lock_top_part1 weapon
arm_lock_top_part2 weapon
arm_lock_top_part3 weapon
front_lower_left_part1 weapon
front_lower_right_part1 weapon
front_top_left_part weapon
front_top_right_part1 weapon
scope_part1 weapon
scope_part2 weapon
front_lower_left_part2 front_lower_left_part1
front_lower_left_part3 front_lower_left_part2
front_lower_right_part2 front_lower_right_part1
front_lower_right_part3 front_lower_right_part2
front_top_left_part2 front_top_left_part
front_top_left_part3 front_top_left_part2
front_top_right_part2 front_top_right_part1
front_top_right_part3 front_top_right_part2
[BasePosition]
#SegmentName Tx, Ty, Tz, Rx, Ry, Rz, BoneLength
MASTER 0.000000 0.000000 0.000000 -90.000000 0.000000 0.000000 10.000000 
weapon 0.000000 0.000000 0.000000 0.000000 0.000000 0.000000 10.000000 
arm_lock_bottom_part1 0.000000 0.000000 0.000000 0.000000 0.000000 0.000000 10.000000 
arm_lock_bottom_part2 0.000000 0.000000 0.000000 0.000000 0.000000 0.000000 10.000000 
arm_lock_bottom_part3 0.000000 0.000000 0.000000 0.000000 0.000000 0.000000 10.000000 
arm_lock_bottom_part4 0.000000 0.000000 0.000000 0.000000 0.000000 0.000000 10.000000 
arm_lock_top_part1 0.000000 0.000000 0.000000 0.000000 0.000000 0.000000 10.000000 
arm_lock_top_part2 0.000000 0.000000 0.000000 0.000000 0.000000 0.000000 10.000000 
arm_lock_top_part3 0.000000 0.000000 0.000000 0.000000 0.000000 0.000000 10.000000 
front_lower_left_part1 0.000000 0.000000 0.000000 0.000000 0.000000 0.000000 10.000000 
front_lower_right_part1 0.000000 0.000000 0.000000 0.000000 0.000000 0.000000 10.000000 
front_top_left_part 0.000000 0.000000 0.000000 0.000000 0.000000 0.000000 10.000000 
front_top_right_part1 0.000000 0.000000 0.000000 0.000000 0.000000 0.000000 10.000000 
scope_part1 0.000000 0.000000 0.000000 0.000000 0.000000 0.000000 10.000000 
scope_part2 0.000000 0.000000 0.000000 0.000000 0.000000 0.000000 10.000000 
front_lower_left_part2 0.000000 0.000000 0.000000 0.000000 0.000000 0.000000 10.000000 
front_lower_left_part3 0.000000 0.000000 0.000000 0.000000 0.000000 0.000000 10.000000 
front_lower_right_part2 0.000000 0.000000 0.000000 0.000000 0.000000 0.000000 10.000000 
front_lower_right_part3 0.000000 0.000000 0.000000 0.000000 0.000000 0.000000 10.000000 
front_top_left_part2 0.000000 0.000000 0.000000 0.000000 0.000000 0.000000 10.000000 
front_top_left_part3 0.000000 0.000000 0.000000 0.000000 0.000000 0.000000 10.000000 
front_top_right_part2 0.000000 0.000000 0.000000 0.000000 0.000000 0.000000 10.000000 
front_top_right_part3 0.000000 0.000000 0.000000 0.000000 0.000000 0.000000 10.000000 
#Beginning of Data. Separated by tabs
#Fr	Tx	Ty	Tz	Rx	Ry	Rz	SF
[MASTER]
50 0.000000 -0.000019 0.000002 0.002458 -0.000000 0.000000 0.000019
51 0.000000 -0.000019 0.000002 0.002458 -0.000000 0.000000 0.000019
52 0.000000 -0.000019 0.000002 0.002458 -0.000000 0.000000 0.000019
53 0.000000 -0.000019 0.000002 0.002458 -0.000000 0.000000 0.000019
[weapon]
50 10.182381 -168.977890 -13.084030 -0.002473 -0.000000 -0.000020 169.789276
51 10.182495 -168.977890 -13.084335 -0.002473 -0.000000 -0.000020 169.789307
52 10.182533 -168.977966 -13.084106 -0.002473 -0.000000 -0.000020 169.789368
53 10.182495 -168.977966 -13.084183 -0.002473 -0.000000 -0.000020 169.789368
[arm_lock_bottom_part1]
50 -48.820034 98.566185 -83.498901 -179.997589 -51.814346 9.385672 138.096909
51 -48.820034 98.566185 -83.498901 -179.997589 -51.814346 9.385672 138.096909
52 -48.820034 98.566185 -83.498901 -179.997589 -51.814346 9.385672 138.096909
53 -48.820034 98.566185 -83.498901 -179.997589 -51.814346 9.385672 138.096909
[arm_lock_bottom_part2]
50 -49.022778 58.781982 -78.526520 179.999893 -59.493954 6.579130 109.658417
51 -49.022778 58.781982 -78.526520 179.999893 -59.493954 6.579130 109.658417
52 -49.022778 58.781982 -78.526520 179.999893 -59.493954 6.579130 109.658417
53 -49.022778 58.781982 -78.526520 179.999893 -59.493954 6.579130 109.658417
[arm_lock_bottom_part3]
50 -51.266434 -16.798199 -66.920387 -179.995651 -73.908356 4.319704 85.957924
51 -51.266434 -16.798199 -66.920387 -179.999619 -66.224556 4.324912 85.957924
52 -51.266434 -16.798199 -66.920387 179.997879 -47.891399 4.327536 85.957924
53 -51.266434 -16.798199 -66.920387 179.998764 -26.014866 4.327712 85.957924
[arm_lock_bottom_part4]
50 -40.078083 -93.503029 -59.330029 179.998337 -26.780123 1.323942 117.767235
51 -40.078083 -93.503029 -59.330029 -179.999222 -7.951346 1.320369 117.767235
52 -40.078083 -93.503029 -59.330029 -179.999222 -7.951346 1.320369 117.767235
53 -40.078083 -93.503029 -59.330029 -179.999222 -7.951346 1.320369 117.767235
[arm_lock_top_part1]
50 -47.532562 61.554470 78.379471 0.010751 80.686218 -9.987710 110.415756
51 -47.532562 61.554470 78.379471 0.010751 80.686218 -9.987710 110.415756
52 -47.532562 61.554470 78.379471 0.010751 80.686218 -9.987710 110.415756
53 -47.532562 61.554470 78.379471 0.010751 80.686218 -9.987710 110.415756
[arm_lock_top_part2]
50 -45.622692 13.709888 63.393517 -179.992584 70.671555 172.285812 79.297722
51 -45.622692 13.709888 63.393517 179.987030 82.039032 172.265411 79.297722
52 -45.622692 13.709888 63.393517 -0.002308 70.847748 -7.725438 79.297722
53 -45.622692 13.709888 63.393517 0.001814 38.482933 -7.719474 79.297722
[arm_lock_top_part3]
50 -43.788521 -73.747162 72.061607 -0.001409 29.550203 -4.531561 112.022110
51 -43.788521 -73.747162 72.061607 0.001593 0.001743 -4.534720 112.022110
52 -43.788521 -73.747162 72.061607 -0.001900 4.967547 -4.534110 112.022110
53 -43.788521 -73.747162 72.061607 0.001593 0.001724 -4.534721 112.022110
[front_lower_left_part1]
50 -46.798580 475.070923 -43.538815 0.000000 0.000003 -0.000000 479.351746
51 -46.798580 475.070923 -43.538815 0.000000 0.000003 -0.000000 479.351746
52 -46.798580 475.070923 -43.538815 0.000000 0.000003 -0.000000 479.351746
53 -46.798580 475.070923 -43.538815 0.000000 0.000003 -0.000000 479.351746
[front_lower_right_part1]
50 26.433397 475.070923 -43.538826 0.000000 -0.000000 -0.000000 477.793640
51 26.433397 475.070923 -43.538826 0.000000 -0.000000 -0.000000 477.793640
52 26.433397 475.070923 -43.538826 0.000000 -0.000000 -0.000000 477.793640
53 26.433397 475.070923 -43.538826 0.000000 -0.000000 -0.000000 477.793640
[front_top_left_part]
50 -47.897255 494.788696 7.031011 -0.000000 0.000003 -0.000001 497.151367
51 -47.897255 494.788696 7.031011 -0.000000 0.000003 -0.000001 497.151367
52 -47.897255 494.788696 7.031011 -0.000000 0.000003 -0.000001 497.151367
53 -47.897255 494.788696 7.031011 -0.000000 0.000003 -0.000001 497.151367
[front_top_right_part1]
50 27.532097 494.788727 7.031008 0.000000 -0.000000 -0.000000 495.604004
51 27.532097 494.788727 7.031008 0.000000 -0.000000 -0.000000 495.604004
52 27.532097 494.788727 7.031008 0.000000 -0.000000 -0.000000 495.604004
53 27.532097 494.788727 7.031008 0.000000 -0.000000 -0.000000 495.604004
[scope_part1]
50 -10.754304 87.338959 156.453140 -8.505179 54.676098 -6.956338 179.503021
51 -10.754304 87.338959 156.453140 -9.138219 57.419228 -7.718660 179.503021
52 -10.754304 87.338959 156.453140 -9.896532 60.156967 -8.604463 179.503021
53 -10.754304 87.338959 156.453140 -10.831343 62.924568 -9.667570 179.503021
[scope_part2]
50 -10.754300 82.597374 156.860001 -18.411036 74.303429 -17.768541 177.603607
51 -10.754300 82.597374 156.860001 -23.192707 77.466469 -22.698196 177.603607
52 -10.754300 82.597374 156.860001 -31.126825 80.481361 -30.779411 177.603607
53 -10.754300 82.597374 156.860001 -45.940186 83.166512 -45.736897 177.603607
[front_lower_left_part2]
50 -55.193569 141.618454 32.268322 0.001886 0.001397 16.927948 155.381348
51 -55.193569 141.618454 32.268322 0.001886 0.001397 16.927948 155.381348
52 -55.193569 141.618454 32.268322 0.001886 0.001397 16.927948 155.381348
53 -55.193569 141.618454 32.268322 0.001886 0.001397 16.927948 155.381348
[front_lower_left_part3]
50 -10.943815 108.509422 -11.124855 25.237423 -27.427294 8.121859 109.625839
51 -10.943815 108.509422 -11.124855 25.873335 -26.833540 6.727449 109.625839
52 -10.943815 108.509422 -11.124855 26.501829 -26.213114 5.319518 109.625839
53 -10.943815 108.509422 -11.124855 27.117250 -25.574768 3.912129 109.625839
[front_lower_right_part2]
50 55.193596 141.618317 32.268330 0.001480 0.001822 -11.824665 155.381226
51 55.193596 141.618317 32.268330 0.001480 0.001822 -11.824665 155.381226
52 55.193596 141.618317 32.268330 0.001480 0.001822 -11.824665 155.381226
53 55.193596 141.618317 32.268330 0.001480 0.001822 -11.824665 155.381226
[front_lower_right_part3]
50 10.943837 108.509453 -11.124846 27.136301 25.559410 -3.871426 109.625862
51 10.943837 108.509453 -11.124846 27.419828 25.246609 -3.208950 109.625862
52 10.943837 108.509453 -11.124846 27.709467 24.927046 -2.527913 109.625862
53 10.943837 108.509453 -11.124846 27.998571 24.590607 -1.832293 109.625862
[front_top_left_part2]
50 -68.606689 132.667786 55.914749 11.079756 0.000004 13.726176 159.480652
51 -68.606689 132.667786 55.914745 11.079756 0.000004 13.726176 159.480652
52 -68.606689 132.667786 55.914738 11.079756 0.000004 13.726176 159.480637
53 -68.606689 132.667770 55.914734 11.079758 0.000004 13.726179 159.480621
[front_top_left_part3]
50 -28.216480 149.656799 49.959614 -24.930355 -8.047123 -75.296310 160.278793
51 -28.216480 149.656799 49.959614 -25.002571 -7.806565 -74.775665 160.278793
52 -28.216480 149.656799 49.959614 -25.072529 -7.565365 -74.255623 160.278793
53 -28.216480 149.656799 49.959614 -25.143583 -7.318552 -73.721443 160.278793
[front_top_right_part2]
50 62.566227 124.344566 58.663265 14.077118 -1.062711 -17.004618 151.054565
51 62.566227 124.344566 58.663273 14.077118 -1.062711 -17.004618 151.054565
52 62.566227 124.344566 58.663277 14.077118 -1.062711 -17.004618 151.054565
53 62.566219 124.344566 58.663284 14.077118 -1.062711 -17.004618 151.054565
[front_top_right_part3]
50 28.216452 149.656952 49.959507 -24.723932 8.709850 76.737122 160.278885
51 28.216452 149.656952 49.959507 -24.723932 8.709850 76.737122 160.278885
52 28.216452 149.656952 49.959507 -24.723932 8.709850 76.737122 160.278885
53 28.216452 149.656952 49.959507 -24.723932 8.709850 76.737122 160.278885
